# xmcd CD database file
#
# Track frame offsets:
#	150
#	20272
#	44275
#	64232
#	91900
#	111535
#	125547
#	153807
#	184982
#	209452
#	237477
#	254072
#
# Disc length: 3712 seconds
#
# Revision: 2
# Processed by: cddbd v1.5.2PL0 Copyright (c) Steve Scherf et al.
# Submitted via: CDex 1.70beta3
#
DISCID=ad0e7e0c
DTITLE=浜田麻里 - Sincerely II
DYEAR=2005
DGENRE=J-Rock
TTITLE0=Missing
TTITLE1=Ataraxia
TTITLE2=Can't Get You Close Enough
TTITLE3=Canary
TTITLE4=KOI・UTA
TTITLE5=Soleil
TTITLE6=Prayer
TTITLE7=Earth-Born
TTITLE8=So Hurt So Long
TTITLE9=Beautiful Days
TTITLE10=Tolerance
TTITLE11=Stardust
EXTD=YEAR: 2005
EXTT0=
EXTT1=
EXTT2=
EXTT3=
EXTT4=
EXTT5=
EXTT6=
EXTT7=
EXTT8=
EXTT9=
EXTT10=
EXTT11=
PLAYORDER=
